<svg xmlns="http://www.w3.org/2000/svg" version="1.1" xmlns:xlink="http://www.w3.org/1999/xlink" xmlns:svgjs="http://svgjs.com/svgjs" width="2515" height="300" transform="matrix(1,0,0,1,0,0)">
  <text font-family="DM Sans" font-size="260" text-anchor="left" x="310" charspacing="20px">
    <tspan dy="239.20000000000002" x="310">CourseCrafter</tspan>
  </text>
  <path transform="matrix(6.123233995736766e-17,1,-1,6.123233995736766e-17,148,149.33)" d="M18.932,40.271A23,23,269.83709875717034,0,0,44.737,59.997L51.388,59.119A9.487731872527668,9.487731872527668,43.4406666626145,0,1,60,74.5L60,74.5A11.657564636682007,11.657564636682007,-307.8398498528422,0,1,39.592,69.805L18.674,-19.909A3.905563720989733,3.905563720989733,-5.437915566942614,0,0,11,-18.5ZM-44.342,-3.74A23,23,-90.16290124285696,0,0,-74.328,8.745L-76.892,14.944A9.487731872556136,9.487731872556136,-316.55933333726415,0,1,-94.519,14.712L-94.519,14.712A11.657564636655547,11.657564636655547,52.160150147058815,0,1,-80.249,-0.615L7.905,26.127A3.905563720984435,3.905563720984435,-5.437915566937719,0,0,10.521,18.776ZM25.41,-36.532A23,23,-90.16290124279821,0,0,29.59,-68.742L25.504,-74.063A9.487731872540811,9.487731872540811,43.440666662611484,0,1,34.519,-89.212L34.519,-89.212A11.657564636685052,11.657564636685052,52.160150147103536,0,1,40.657,-69.19L-26.579,-6.218A3.9055637209705996,3.9055637209705996,-5.437915566916817,0,0,-21.521,-0.276Z"/>
</svg>